<?xml version="1.0" encoding="UTF-8"?>
<!-- Created with Inkscape (http://www.inkscape.org/) -->
<svg width="508mm" height="135.73mm" version="1.1" viewBox="0 0 508 135.73" xmlns="http://www.w3.org/2000/svg" xmlns:cc="http://creativecommons.org/ns#" xmlns:dc="http://purl.org/dc/elements/1.1/" xmlns:rdf="http://www.w3.org/1999/02/22-rdf-syntax-ns#">
 <metadata>
  <rdf:RDF>
   <cc:Work rdf:about="">
    <dc:format>image/svg+xml</dc:format>
    <dc:type rdf:resource="http://purl.org/dc/dcmitype/StillImage"/>
    <dc:title/>
   </cc:Work>
  </rdf:RDF>
 </metadata>
 <g transform="translate(284.24 -67.945)">
  <g stroke-width=".26458">
   <path d="m-284 203.08c0.12793-0.32771 2.8183-6.4894 5.9787-13.693 11.627-26.502 13.481-30.727 17.06-38.894 2.009-4.5839 5.6397-12.859 8.0681-18.389s6.4732-14.757 8.9885-20.505c3.7934-8.6691 14.27-32.548 18.108-41.275l0.98925-2.249 135.99-0.1333 3.5426 8.1364c1.9484 4.475 3.9948 9.1187 4.5475 10.319l1.005 2.1828h151.74c83.457 0 151.74 0.0412 151.74 0.0914 0 0.11082-2.2366 5.2428-9.1274 20.943-12.591 28.687-15.972 36.393-18.806 42.863-1.6575 3.7835-5.3124 12.118-8.1221 18.521l-5.1085 11.642-321.97 0.26459-0.38508 0.79375c-0.2118 0.43656-2.2652 5.08-4.563 10.319l-4.178 9.525-135.73 0.1333z" fill="#f7b20f"/>
   <path d="m-139.38 182.52c-0.0878-0.14213 0.92908-2.7318 2.2598-5.7549 1.3307-3.0231 2.9928-6.8062 3.6935-8.4069 1.4322-3.2718 4.4429-10.133 7.14-16.272 1.9984-4.5484 14.375-32.784 21.745-49.609 6.0904-13.904 5.9798-13.663 6.5542-14.287 0.2683-0.29147 1.2631-2.3159 2.2107-4.4987 4.4813-10.323 6.5032-14.807 6.7065-14.874 0.12191-0.0401 2.1099 4.2426 4.4177 9.5173 2.3078 5.2746 4.3844 9.7391 4.6146 9.921 0.33376 0.26371 31.156 0.33073 152.11 0.33073 83.428 0 151.69 0.0412 151.69 0.0914 0 0.11082-2.2366 5.2428-9.1274 20.943-12.591 28.687-15.972 36.393-18.806 42.863-1.6575 3.7835-5.3124 12.118-8.1221 18.521l-5.1085 11.642-160.91 0.0664c-104.5 0.0431-160.96-0.0242-161.07-0.19206zm74.884-37.74c-0.37177-2.6026-0.7425-5.1324-0.82385-5.6217-0.14227-0.85577 9e-3 -1.0478 3.9707-5.0375 2.2652-2.2813 4.1186-4.2669 4.1186-4.4125 0-0.14559-1.1609-0.46791-2.5797-0.71626-1.4188-0.24836-3.941-0.6914-5.6047-0.98455-1.6638-0.29315-3.2116-0.70297-3.4396-0.9107-0.228-0.20774-1.5456-2.5852-2.9281-5.2832s-2.6326-4.9062-2.7781-4.907c-0.14552-7.9e-4 -1.4249 2.2438-2.843 4.9881-1.4181 2.7442-2.7278 5.108-2.9104 5.2528-0.1826 0.14481-2.6537 0.64438-5.4914 1.1102s-5.4508 0.93574-5.8069 1.0444c-0.60896 0.18571-0.40027 0.45011 3.5057 4.4415 2.7789 2.8397 4.1532 4.4339 4.1532 4.8176 0 0.31547-0.36782 2.9612-0.81738 5.8793-0.44956 2.9182-0.74392 5.3792-0.65413 5.469 0.08979 0.0898 2.5482-1.0163 5.4632-2.4579l5.2999-2.6211 5.3422 2.6973c3.6675 1.8517 5.3669 2.5856 5.4209 2.3408 0.04327-0.19607-0.2255-2.4859-0.59727-5.0885zm56.666 4.7268c-0.07871-0.40018-0.46892-3.0839-0.86715-5.9638l-0.72401-5.2362 2.7644-2.8336c3.4531-3.5394 5.3634-5.5887 5.4621-5.8595 0.04186-0.11492-0.37486-0.27312-0.92604-0.35155-3.3237-0.47294-10.565-1.8512-10.765-2.049-0.13078-0.12922-1.389-2.4662-2.7961-5.1934-1.4071-2.7271-2.6692-4.9954-2.8049-5.0406-0.13565-0.0452-1.4758 2.2343-2.9781 5.0655-1.5276 2.879-2.9302 5.2108-3.1825 5.2909-0.24808 0.0787-2.8672 0.54889-5.8203 1.0448-2.9531 0.49589-5.4411 0.9735-5.5289 1.0614-0.08785 0.0879 1.7066 2.0491 3.9876 4.3583 2.2811 2.3092 4.1497 4.3025 4.1525 4.4295 0.0028 0.12701-0.37688 2.7583-0.84383 5.8473-0.46694 3.089-0.76189 5.7035-0.65543 5.81 0.10646 0.10645 2.5429-0.97644 5.4144-2.4064l5.2208-2.6 5.2852 2.6629c2.9068 1.4646 5.3894 2.6692 5.5167 2.677 0.12734 8e-3 0.16711-0.31331 0.088371-0.71349zm56.077 0.13229c-0.26699-1.0652-1.4956-9.9811-1.4956-10.853 0-0.74219 0.52007-1.3693 4.1526-5.0072 2.8093-2.8134 4.0289-4.2036 3.7703-4.2976-0.21026-0.0764-2.8231-0.56195-5.8062-1.079-4.4597-0.77301-5.5064-1.0379-5.8873-1.4898-0.25484-0.30234-1.5381-2.6794-2.8517-5.2825-1.3136-2.603-2.4955-4.7328-2.6264-4.7328-0.13097 0-1.4571 2.32-2.9469 5.1555-1.4898 2.8355-2.9002 5.2162-3.134 5.2905-0.23392 0.0742-2.8387 0.53757-5.7884 1.0296-2.9497 0.49205-5.4334 0.96489-5.5193 1.0508-0.08586 0.0859 1.6457 2.0485 3.848 4.3613 3.621 3.8029 4.004 4.2951 4.004 5.1447 0 0.76631-0.91826 7.3148-1.4462 10.313-0.07641 0.43402-0.0095 0.7276 0.16584 0.7276 0.16169 0 2.6397-1.1414 5.5067-2.5364l5.2127-2.5364 5.2685 2.6545c2.8977 1.46 5.3707 2.6609 5.4956 2.6686 0.12491 8e-3 0.15997-0.25377 0.0779-0.5812zm55.139-5.6133c-0.54004-3.6503-0.72636-5.6144-0.56086-5.9126 0.13631-0.24558 1.982-2.1714 4.1015-4.2795 2.1195-2.1082 3.8537-3.9554 3.8537-4.105s-2.292-0.66983-5.0932-1.1561c-2.8013-0.48626-5.4504-0.99156-5.887-1.1229-0.70078-0.21083-1.1037-0.84232-3.4396-5.3911-1.4552-2.8337-2.7649-5.117-2.9104-5.074-0.14552 0.0431-1.4027 2.2464-2.7937 4.8962s-2.7007 4.9821-2.9104 5.1828c-0.21836 0.20898-2.5861 0.72275-5.5407 1.2022-2.8377 0.46052-5.4324 0.92033-5.7662 1.0218-0.55494 0.16873-0.25541 0.55077 3.5057 4.4714 2.9055 3.0288 4.1125 4.468 4.1125 4.9039 0 0.33933-0.36182 2.9779-0.80404 5.8634-0.44223 2.8855-0.738 5.3125-0.65733 5.3932 0.0807 0.0807 2.5373-1.0283 5.4591-2.4644l5.3124-2.6111 5.333 2.6822c3.6884 1.8551 5.3578 2.5717 5.4135 2.3239 0.0443-0.19704-0.28329-2.818-0.72808-5.8244z" fill="#cc6d15"/>
   <path d="m-138.99 182.3c0-0.11636 1.2029-2.9441 2.6731-6.2838 1.4702-3.3398 4.3163-9.8228 6.3246-14.407s5.6386-12.859 8.0674-18.389 6.2394-14.221 8.468-19.315c6.319-14.441 12.632-28.82 14.055-32.015l1.2968-2.9104 160.8-0.0664c88.438-0.0365 160.8-0.025 160.8 0.0255s-0.16987 0.43757-0.37748 0.86011c-0.20762 0.42254-1.8877 4.2211-3.7336 8.4412-3.5486 8.1132-10.492 23.955-13.801 31.485-1.0868 2.4738-2.9639 6.7601-4.1714 9.525-1.2075 2.7649-3.9485 9.0157-6.0912 13.891-2.1426 4.875-5.775 13.15-8.0718 18.389-2.2969 5.2388-4.3276 9.8524-4.5127 10.253l-0.33658 0.7276h-160.69c-88.381 0-160.69-0.0952-160.69-0.21157zm59.598-34.607 4.6969-2.3486 5.4593 2.7258c3.5643 1.7796 5.5493 2.6358 5.7185 2.4666s-0.02779-2.2186-0.56766-5.904c-0.45479-3.1046-0.8257-5.8152-0.82424-6.0236 0.0013-0.20831 1.9321-2.321 4.2903-4.695 2.969-2.9888 4.203-4.4009 4.0124-4.5915-0.15138-0.15137-2.7059-0.69338-5.6767-1.2044-2.9708-0.51107-5.65-1.0313-5.9538-1.1561-0.3667-0.15063-1.4638-2.0136-3.2647-5.5438-1.4918-2.9243-2.8554-5.3169-3.0302-5.3169-0.17479 0-1.5956 2.4285-3.1574 5.3968-2.1739 4.1316-2.9778 5.4294-3.4289 5.536-0.32415 0.0766-3.0137 0.53044-5.9767 1.0085-3.6662 0.59154-5.4316 0.98466-5.526 1.2305-0.08421 0.21944 1.4851 1.9965 3.9983 4.5274 3.5951 3.6205 4.1369 4.2762 4.1369 5.0058 0 0.46177-0.36317 3.2233-0.80705 6.1366-0.44388 2.9134-0.73516 5.4134-0.6473 5.5555 0.20348 0.32923 0.72881 0.10414 6.5481-2.8057zm58.216-1.057 2.5878-1.2933 5.4272 2.7511c3.3891 1.718 5.5206 2.6577 5.676 2.5023 0.15539-0.15538-0.04583-2.2327-0.53578-5.5316-0.43156-2.9055-0.78679-5.6354-0.78941-6.0665-4e-3 -0.66121 0.66458-1.4575 4.2789-5.0958 2.923-2.9425 4.1976-4.3982 4.0127-4.5832-0.14904-0.14903-0.85627-0.36896-1.5717-0.48872-8.3463-1.3973-10.088-1.7411-10.429-2.0583-0.21828-0.20321-1.5875-2.6497-3.0427-5.4367-1.4552-2.787-2.7796-5.1096-2.9431-5.1614-0.16351-0.0518-1.5327 2.2476-3.0427 5.1097s-2.9836 5.3475-3.2746 5.5231c-0.29104 0.17562-3.0127 0.72051-6.0482 1.2109-3.5345 0.57098-5.5657 1.0132-5.6488 1.2298-0.07173 0.18693 1.6871 2.2414 3.9315 4.5923 2.2337 2.3397 4.1014 4.4338 4.1504 4.6534 0.049 0.21962-0.16348 2.0282-0.47217 4.019-0.30869 1.9908-0.69147 4.4763-0.85062 5.5232-0.44696 2.9403-0.44934 2.9393 3.0094 1.3052 1.6428-0.7761 4.1514-1.9931 5.5747-2.7044zm63.848 1.4285c2.9713 1.4835 5.5207 2.6974 5.6653 2.6974 0.4069 0 0.31064-1.2927-0.52062-6.9922l-0.76899-5.2724 4.2158-4.4144c2.3187-2.4279 4.2158-4.5405 4.2158-4.6946 0-0.32085 0.14915-0.28835-6.35-1.3838-2.6921-0.45377-5.1092-0.90803-5.3713-1.0095-0.27353-0.10588-1.6392-2.4369-3.2064-5.4728-1.5514-3.0055-2.8876-5.2884-3.0954-5.2884-0.20632 0-1.5207 2.2153-3.0178 5.0865-1.4588 2.7976-2.7786 5.2128-2.9329 5.3671-0.15433 0.15434-2.0564 0.57707-4.2269 0.93939s-4.8306 0.80846-5.9114 0.99141c-1.0808 0.18296-2.0056 0.45409-2.0551 0.60252-0.04948 0.14842 1.8223 2.259 4.1595 4.6902 4.0092 4.1703 4.2417 4.4688 4.1128 5.2779-0.07519 0.47166-0.3321 2.1673-0.57092 3.768-0.23884 1.6007-0.59047 3.8613-0.78145 5.0234-0.23053 1.4029-0.25927 2.219-0.08554 2.4283 0.19481 0.23475 1.6491-0.36894 5.6924-2.363l5.4307-2.6783zm45.945-0.3705 4.6948-2.3476 5.5464 2.7632c3.0505 1.5197 5.6272 2.6824 5.7259 2.5837 0.0987-0.0987-0.19383-2.7868-0.65011-5.9735-0.45627-3.1867-0.8296-5.9505-0.8296-6.1417s1.9348-2.2981 4.2995-4.6819c4.0629-4.0958 4.2712-4.3552 3.7859-4.7145-0.2825-0.20913-0.72875-0.38022-0.99169-0.38022-0.79005 0-9.8287-1.5949-10.424-1.8394-0.36674-0.15058-1.4635-2.013-3.2647-5.5437-1.4918-2.9243-2.852-5.3169-3.0225-5.3169s-1.559 2.3921-3.0853 5.3157c-1.7857 3.4204-2.9639 5.3873-3.3044 5.5166-0.29104 0.1105-3.0127 0.60004-6.0481 1.0879-3.7808 0.60764-5.5628 1.0013-5.6582 1.25-0.0851 0.22173 1.4705 1.9841 3.9976 4.5292 3.6233 3.649 4.1369 4.2721 4.1369 5.0196 0 0.46938-0.36144 3.1917-0.80322 6.0497-0.44177 2.8579-0.74213 5.3555-0.66744 5.5501 0.17211 0.4485 0.41693 0.34679 6.5624-2.7261zm55.233-0.23944c2.762-1.3824 5.2028-2.5135 5.424-2.5135s2.676 1.1381 5.4551 2.5291c2.7791 1.391 5.1251 2.457 5.2132 2.3689 0.0881-0.0881-0.16399-2.4466-0.56021-5.2411-0.39624-2.7945-0.71927-5.4367-0.71789-5.8716 3e-3 -0.6663 0.65521-1.4444 4.15-4.9442 3.7903-3.7959 4.0922-4.1664 3.5057-4.3026-0.35293-0.082-2.9324-0.55019-5.7322-1.0404-2.7998-0.49021-5.269-1.0394-5.4871-1.2204-0.21813-0.18101-1.5541-2.5864-2.9688-5.3454-2.305-4.4951-2.6089-4.9662-2.925-4.5341-0.19396 0.26516-1.3689 2.4466-2.611 4.8477-1.2421 2.4011-2.4649 4.5783-2.7173 4.8381-0.33877 0.34876-1.9057 0.71426-5.9828 1.3955-3.0381 0.50766-5.5834 0.98258-5.6562 1.0554-0.13772 0.13771 0.93585 1.3087 5.3787 5.8669l2.6365 2.705-0.32713 2.4544c-0.17992 1.3499-0.55828 3.9427-0.84082 5.7617-0.58074 3.7388-0.57706 3.7042-0.39347 3.7042 0.0742 0 2.3948-1.1311 5.1567-2.5135z" fill="#254016"/>
  </g>
  <path d="m-284 203.05c2.0213-2.8634 33.587-38.944 35.326-40.378 1.5969-1.3172 2.4194-1.4776 5.8144-1.1339l3.9544 0.40033 6.559-9.1953-2.1344-3.5594c-1.1739-1.9576-2.5675-5.5005-3.0969-7.873-1.718-7.6995 2.6504-17.021 12.306-26.26 9.856-9.4304 14.695-11.296 22.142-8.5378 1.3824 0.51209 2.8205 0.78723 3.1958 0.6114 0.37527-0.17589 5.7045-6.965 11.843-15.087 6.1383-8.1221 12.168-15.595 13.399-16.607 4.9388-4.0588 12.075-3.8321 17.693 0.56191 2.5542 1.9979 2.9998 2.8106 2.9952 5.4625-5e-3 2.659-0.99841 4.4434-6.7839 12.18-3.7282 4.9858-6.7784 9.5323-6.7784 10.103s1.1614 1.4937 2.5808 2.0502 3.5954 2.0203 4.8355 3.253c1.635 1.6251 3.1816 2.3535 5.6268 2.65 3.9378 0.47739 9.1907 4.3966 10.1 7.5356 0.39318 1.3572 1.4803 2.2866 3.5496 3.0347 3.8974 1.409 5.8679 3.7884 6.3612 7.6812 0.3668 2.8942-0.1263 3.9256-5.9299 12.405-14.733 21.527-21.804 29.021-30.626 32.457-2.1664 0.84389-4.5617 2.0892-5.3227 2.7674-1.8529 1.6512-6.0566 7.2749-6.0566 8.1025 0 0.36318 1.1812 1.5558 2.6248 2.6503 3.0412 2.3057 3.0344 2.3331-2.3301 9.4591-2.0878 2.7734-3.796 5.3864-3.796 5.8068 0 0.56768-12.733 0.76434-49.487 0.76434-48.955 0-49.477-0.0132-48.565-1.3066zm91.386-16.256c2.2477-2.6007 1.7646-3.9645-1.8688-5.2758-6.7569-2.4386-21.908-9.3209-28.803-13.084-3.9264-2.1426-7.7037-3.8957-8.394-3.8957-1.5733 0-3.5 3.0907-2.8679 4.6005 1.1534 2.7552 17.346 11.844 29.114 16.34 8.8283 3.3736 10.861 3.582 12.821 1.3144zm9.015-11.753c1.5688-1.7635 4.1354-3.4236 7.0596-4.5662 2.527-0.98741 5.8752-2.5394 7.4404-3.449 5.3489-3.1082 27.205-33.01 26.745-36.591-0.37616-2.9282-3.3399-3.1089-7.3381-0.4474-2.424 1.6136-3.415 1.9088-4.6818 1.3948-2.59-1.0509-2.6799-2.2997-0.4304-5.9808 2.4184-3.9575 2.6744-6.1415 0.85398-7.2869-2.2378-1.4081-5.0604-0.47428-7.9321 2.6242-2.2028 2.3768-3.2887 2.9864-5.3199 2.9864-2.1161 0-2.5985-0.30345-2.8229-1.7759-0.16104-1.0557 0.63781-2.867 1.9695-4.4664 3.5787-4.298 2.4481-7.0337-2.7198-6.5807-1.8335 0.16065-3.2063 1.0915-5.5238 3.745-3.9602 4.5345-5.5338 5.2297-7.8547 3.4701-2.3004-1.744-2.518-1.3592 11.279-19.942 6.2897-8.4711 11.436-15.87 11.436-16.442 0-1.5947-2.6625-3.4673-4.9298-3.4673-2.5333 0-1.2479-1.5199-24.077 28.471-11.139 14.634-19.612 25.067-20.57 25.331-2.3002 0.63384-4.6935-0.49481-4.6935-2.2134 0-0.8004 2.5861-4.8421 5.7468-8.9815 6.2237-8.1508 6.3654-9.4256 1.0479-9.4256-3.1226 0-6.5863 2.6172-12.907 9.753-6.2643 7.0718-8.1089 11.306-7.7495 17.788 0.22974 4.143 0.82313 6.1253 2.7016 9.0252 2.8112 4.3398 2.8976 5.0819 0.9521 8.1749-1.2292 1.9542-1.2718 2.4808-0.2747 3.3916 2.9804 2.7226 36.19 18.204 39.093 18.224 0.56997 4e-3 2.1456-1.2397 3.5013-2.7637z" fill="#254016" stroke-width=".76217"/>
 </g>
</svg>
