<?xml version="1.0" encoding="UTF-8" standalone="no"?>
<!-- Created with Inkscape (http://www.inkscape.org/) -->

<svg
   xmlns:dc="http://purl.org/dc/elements/1.1/"
   xmlns:cc="http://creativecommons.org/ns#"
   xmlns:rdf="http://www.w3.org/1999/02/22-rdf-syntax-ns#"
   xmlns:svg="http://www.w3.org/2000/svg"
   xmlns="http://www.w3.org/2000/svg"
   xmlns:sodipodi="http://sodipodi.sourceforge.net/DTD/sodipodi-0.dtd"
   xmlns:inkscape="http://www.inkscape.org/namespaces/inkscape"
   width="508mm"
   height="135.73325mm"
   viewBox="0 0 508 135.73325"
   version="1.1"
   id="svg920"
   sodipodi:docname="was_maiwwn.svg"
   inkscape:version="0.92.4 (f8dce91, 2019-08-02)"
   inkscape:export-filename="/home/awt/was_main.png"
   inkscape:export-xdpi="90.010368"
   inkscape:export-ydpi="90.010368">
  <defs
     id="defs914" />
  <sodipodi:namedview
     id="base"
     pagecolor="#ffffff"
     bordercolor="#666666"
     borderopacity="1.0"
     inkscape:pageopacity="0.0"
     inkscape:pageshadow="2"
     inkscape:zoom="0.35"
     inkscape:cx="894.28569"
     inkscape:cy="207.28942"
     inkscape:document-units="mm"
     inkscape:current-layer="layer1"
     showgrid="false"
     inkscape:window-width="1680"
     inkscape:window-height="1022"
     inkscape:window-x="1366"
     inkscape:window-y="0"
     inkscape:window-maximized="1"
     fit-margin-top="0"
     fit-margin-left="0"
     fit-margin-right="0"
     fit-margin-bottom="0" />
  <metadata
     id="metadata917">
    <rdf:RDF>
      <cc:Work
         rdf:about="">
        <dc:format>image/svg+xml</dc:format>
        <dc:type
           rdf:resource="http://purl.org/dc/dcmitype/StillImage" />
        <dc:title></dc:title>
      </cc:Work>
    </rdf:RDF>
  </metadata>
  <g
     inkscape:label="Layer 1"
     inkscape:groupmode="layer"
     id="layer1"
     transform="translate(284.23809,-67.94542)">
    <g
       id="g1566"
       transform="translate(-31.756354,5.2916746)">
      <path
         style="fill:#f7b20f;stroke-width:0.26458332"
         d="m -252.24279,197.79121 c 0.12793,-0.32771 2.81834,-6.48942 5.97868,-13.6927 11.62722,-26.50155 13.48069,-30.72715 17.05994,-38.89375 2.00903,-4.58391 5.63968,-12.85875 8.06811,-18.38854 2.42843,-5.52979 6.47325,-14.75714 8.98848,-20.50521 3.79342,-8.669127 14.26956,-32.547567 18.1085,-41.274997 l 0.98925,-2.24896 67.99257,-0.0667 67.992572,-0.0666 3.542559,8.13644 c 1.948408,4.47505 3.994801,9.11871 4.54754,10.31926 l 1.004982,2.18281 H 103.77115 c 83.45741,0 151.74076,0.0412 151.74076,0.0914 0,0.11082 -2.23663,5.2428 -9.12741,20.942937 -12.59065,28.68691 -15.97181,36.39333 -18.80582,42.86251 -1.65748,3.78354 -5.31241,12.11791 -8.12207,18.52083 l -5.1085,11.64166 -160.984851,0.1323 -160.984849,0.13229 -0.38508,0.79375 c -0.2118,0.43656 -2.26517,5.08 -4.56304,10.31875 l -4.17795,9.525 -67.86386,0.0666 -67.86386,0.0667 z"
         id="path1536"
         inkscape:connector-curvature="0" />
      <path
         style="fill:#cc6d15;stroke-width:0.26458332"
         d="m -107.62464,177.22594 c -0.0878,-0.14213 0.92908,-2.73184 2.25982,-5.75491 1.33074,-3.02306 2.99282,-6.80617 3.69351,-8.40689 1.43215,-3.27176 4.442891,-10.13313 7.140029,-16.27188 1.998411,-4.54843 14.374572,-32.78381 21.744837,-49.609377 6.090409,-13.90379 5.979777,-13.66263 6.55424,-14.28672 0.268295,-0.29147 1.263113,-2.31588 2.210702,-4.49869 4.48128,-10.3228 6.503241,-14.80723 6.706545,-14.87417 0.121912,-0.0401 2.109882,4.24262 4.417711,9.51726 2.307828,5.27463 4.384413,9.73907 4.614632,9.92097 0.333761,0.26371 31.155807,0.33073 152.106544,0.33073 83.42839,0 151.68798,0.0412 151.68798,0.0914 0,0.11082 -2.23663,5.2428 -9.12741,20.942937 -12.59065,28.68691 -15.97181,36.39333 -18.80582,42.86251 -1.65748,3.78354 -5.31241,12.11791 -8.12207,18.52083 l -5.1085,11.64166 -160.906508,0.0664 c -104.501045,0.0431 -160.962512,-0.0242 -161.066242,-0.19206 z m 74.883579,-37.74017 c -0.371766,-2.60263 -0.742497,-5.1324 -0.823849,-5.62172 -0.142274,-0.85577 0.009,-1.04775 3.970703,-5.03746 2.265241,-2.28128 4.118618,-4.26691 4.118618,-4.41251 0,-0.14559 -1.160859,-0.46791 -2.579687,-0.71626 -1.418829,-0.24836 -3.940959,-0.6914 -5.604733,-0.98455 -1.663776,-0.29315 -3.211589,-0.70297 -3.439583,-0.9107 -0.227997,-0.20774 -1.545632,-2.5852 -2.92808,-5.28324 -1.382448,-2.69804 -2.632605,-4.90617 -2.778125,-4.90695 -0.145521,-7.9e-4 -1.424866,2.24385 -2.842993,4.98807 -1.418125,2.74421 -2.727812,5.10795 -2.910417,5.25275 -0.182602,0.14481 -2.653726,0.64438 -5.491382,1.11016 -2.837656,0.46578 -5.450753,0.93574 -5.806882,1.04435 -0.60896,0.18571 -0.400269,0.45011 3.505729,4.44153 2.77889,2.83966 4.153236,4.43386 4.153236,4.81764 0,0.31547 -0.367821,2.96116 -0.817377,5.87932 -0.449559,2.91816 -0.743918,5.37921 -0.654132,5.46899 0.08979,0.0898 2.548207,-1.01626 5.463159,-2.45787 l 5.299911,-2.62113 5.342239,2.6973 c 3.667514,1.85173 5.366904,2.58555 5.420913,2.34082 0.04327,-0.19607 -0.225501,-2.48591 -0.597268,-5.08854 z m 56.665562,4.7268 c -0.07871,-0.40018 -0.468921,-3.08391 -0.867146,-5.96385 l -0.724006,-5.23625 2.764446,-2.83355 c 3.453077,-3.53935 5.363449,-5.58872 5.462138,-5.85952 0.04186,-0.11492 -0.374862,-0.27312 -0.926042,-0.35155 -3.323722,-0.47294 -10.564786,-1.85119 -10.765022,-2.049 -0.130784,-0.12922 -1.389036,-2.46623 -2.796064,-5.19335 -1.407054,-2.72712 -2.669249,-4.9954 -2.804901,-5.04062 -0.135652,-0.0452 -1.475772,2.23427 -2.978063,5.06552 -1.527619,2.87898 -2.930223,5.21081 -3.182485,5.29088 -0.248081,0.0787 -2.867199,0.54889 -5.820267,1.04478 -2.95307,0.49589 -5.44109,0.9735 -5.528939,1.06135 -0.08785,0.0879 1.706591,2.0491 3.987643,4.35834 2.281053,2.30924 4.149691,4.30253 4.15253,4.42954 0.0028,0.12701 -0.376883,2.75832 -0.843828,5.84734 -0.466944,3.08903 -0.761889,5.70352 -0.655431,5.80998 0.106455,0.10645 2.542932,-0.97644 5.414391,-2.40643 l 5.220822,-2.59998 5.285184,2.66288 c 2.906845,1.46458 5.389351,2.66922 5.516669,2.67698 0.127344,0.008 0.167111,-0.31331 0.08837,-0.71349 z m 56.0768,0.13229 c -0.26699,-1.06521 -1.49564,-9.98106 -1.49564,-10.85334 0,-0.74219 0.52007,-1.36929 4.15261,-5.00716 2.80927,-2.81339 4.02894,-4.20364 3.77031,-4.29759 -0.21026,-0.0764 -2.82308,-0.56195 -5.80625,-1.07903 -4.45966,-0.77301 -5.50635,-1.03788 -5.88733,-1.48984 -0.25484,-0.30234 -1.5381,-2.67944 -2.851702,-5.28246 -1.313577,-2.60302 -2.495471,-4.73276 -2.626439,-4.73276 -0.130969,0 -1.457061,2.31996 -2.946903,5.15547 -1.489816,2.83552 -2.900151,5.21623 -3.134043,5.29046 -0.233918,0.0742 -2.838688,0.53757 -5.788422,1.02963 -2.949733,0.49205 -5.433403,0.96489 -5.519261,1.05075 -0.08586,0.0859 1.645735,2.04846 3.847968,4.36133 3.620982,3.80291 4.004045,4.29509 4.004045,5.14467 0,0.76631 -0.918263,7.31478 -1.446159,10.313 -0.07641,0.43402 -0.0095,0.7276 0.165841,0.7276 0.161686,0 2.639668,-1.14136 5.506667,-2.53636 l 5.212688,-2.53635 5.26849,2.65454 c 2.89769,1.45999 5.37072,2.66088 5.49563,2.66864 0.12491,0.008 0.15997,-0.25377 0.0779,-0.5812 z m 55.139189,-5.6133 c -0.54004,-3.65027 -0.72636,-5.61442 -0.56086,-5.91259 0.13631,-0.24558 1.98199,-2.17137 4.10151,-4.27954 2.11953,-2.10817 3.85369,-3.95542 3.85369,-4.10501 0,-0.14959 -2.29196,-0.66983 -5.09323,-1.15609 -2.80128,-0.48626 -5.45042,-0.99156 -5.88698,-1.1229 -0.70078,-0.21083 -1.10368,-0.84232 -3.43958,-5.39106 -1.45521,-2.83374 -2.7649,-5.11702 -2.91042,-5.07395 -0.14552,0.0431 -1.40269,2.24636 -2.79371,4.89621 -1.39102,2.64985 -2.70071,4.98213 -2.91042,5.18285 -0.21836,0.20898 -2.58609,0.72275 -5.54066,1.20225 -2.83766,0.46052 -5.43243,0.92033 -5.76617,1.02181 -0.55494,0.16873 -0.25541,0.55077 3.50573,4.4714 2.90554,3.02876 4.11252,4.46798 4.11252,4.90386 0,0.33933 -0.36182,2.97786 -0.80404,5.86339 -0.44223,2.88554 -0.738,5.31246 -0.65733,5.39315 0.0807,0.0807 2.53732,-1.02828 5.45914,-2.4644 l 5.31241,-2.61112 5.33295,2.68218 c 3.68837,1.85506 5.35778,2.5717 5.41353,2.32391 0.0443,-0.19704 -0.28329,-2.818 -0.72808,-5.82435 z"
         id="path1534"
         inkscape:connector-curvature="0" />
      <path
         style="fill:#272626;stroke-width:0.26458332"
         d="m -107.23184,177.00777 c 0,-0.11636 1.20291,-2.9441 2.67314,-6.28385 1.47022,-3.33976 4.3163,-9.82275 6.324605,-14.40666 2.008304,-4.58391 5.638646,-12.85875 8.067426,-18.38854 2.42878,-5.52979 6.239399,-14.22136 8.468045,-19.31459 6.319046,-14.44122 12.631507,-28.819787 14.055,-32.014577 l 1.296787,-2.91041 160.797088,-0.0664 c 88.438379,-0.0365 160.797079,-0.025 160.797079,0.0255 0,0.0505 -0.16987,0.43757 -0.37748,0.86011 -0.20762,0.42254 -1.88773,4.22107 -3.73357,8.44117 -3.54861,8.113177 -10.49242,23.955227 -13.80053,31.485417 -1.0868,2.47385 -2.96394,6.7601 -4.17145,9.525 -1.2075,2.76489 -3.94851,9.01567 -6.09116,13.89062 -2.14262,4.87495 -5.77495,13.14979 -8.07185,18.38854 -2.29688,5.23875 -4.32761,9.85243 -4.51273,10.25261 l -0.33658,0.7276 H 53.46007 c -88.380551,0 -160.69191,-0.0952 -160.69191,-0.21157 z m 59.597907,-34.6073 4.696868,-2.34858 5.459296,2.72579 c 3.564316,1.77964 5.549278,2.63582 5.718524,2.46657 0.169246,-0.16925 -0.02779,-2.21861 -0.567658,-5.90405 -0.454787,-3.10465 -0.825696,-5.81525 -0.824243,-6.02356 0.0013,-0.20831 1.93208,-2.32104 4.290282,-4.69496 2.969025,-2.98882 4.202994,-4.40087 4.012406,-4.59146 -0.151378,-0.15137 -2.705893,-0.69338 -5.676701,-1.20445 -2.970811,-0.51107 -5.650003,-1.03132 -5.953766,-1.15609 -0.366696,-0.15063 -1.463794,-2.01361 -3.26472,-5.54381 -1.491837,-2.92432 -2.855436,-5.31694 -3.03022,-5.31694 -0.174786,0 -1.595604,2.42854 -3.157373,5.39677 -2.173883,4.13157 -2.977751,5.42942 -3.428945,5.53605 -0.324151,0.0766 -3.013667,0.53044 -5.976704,1.00854 -3.666181,0.59154 -5.431629,0.98466 -5.525958,1.23049 -0.08421,0.21944 1.485122,1.99647 3.998277,4.52742 3.595074,3.62053 4.136896,4.27616 4.136896,5.00578 0,0.46177 -0.36317,3.22326 -0.807046,6.13664 -0.443875,2.91338 -0.735163,5.41337 -0.647305,5.55553 0.203477,0.32923 0.728808,0.10414 6.54809,-2.80568 z m 58.215975,-1.05698 2.587834,-1.29334 5.427213,2.75112 c 3.389074,1.71796 5.520637,2.65766 5.676027,2.50228 0.155389,-0.15538 -0.04583,-2.23272 -0.535782,-5.53162 -0.431562,-2.90554 -0.786791,-5.63544 -0.78941,-6.06646 -0.004,-0.66121 0.66458,-1.45747 4.278868,-5.09585 2.923037,-2.94252 4.197561,-4.39825 4.01267,-4.58315 -0.149039,-0.14903 -0.856271,-0.36896 -1.571651,-0.48872 -8.346281,-1.39733 -10.088086,-1.7411 -10.428817,-2.05831 -0.218281,-0.20321 -1.5875,-2.64974 -3.042708,-5.43673 -1.455208,-2.787 -2.779607,-5.10963 -2.943093,-5.16142 -0.163512,-0.0518 -1.532723,2.24756 -3.042716,5.10966 -1.509993,2.8621 -2.983566,5.3475 -3.274608,5.52313 -0.291041,0.17562 -3.012739,0.72051 -6.048216,1.21087 -3.534526,0.57098 -5.565722,1.01319 -5.648846,1.2298 -0.07173,0.18693 1.6871,2.24136 3.931549,4.59233 2.233743,2.33974 4.101431,4.43377 4.150424,4.65339 0.049,0.21962 -0.163483,2.02816 -0.47217,4.01899 -0.30869,1.99082 -0.691468,4.47628 -0.85062,5.52324 -0.446963,2.9403 -0.449344,2.93927 3.009368,1.30523 1.642764,-0.7761 4.151371,-1.9931 5.574684,-2.70444 z m 63.847529,1.4285 c 2.9713,1.48354 5.52066,2.69735 5.66526,2.69735 0.4069,0 0.31064,-1.29273 -0.52062,-6.99219 l -0.76899,-5.2724 4.21585,-4.41439 c 2.31872,-2.42791 4.21584,-4.54048 4.21584,-4.6946 0,-0.32085 0.14915,-0.28835 -6.35,-1.3838 -2.69214,-0.45377 -5.10921,-0.90803 -5.37128,-1.00948 -0.27353,-0.10588 -1.6392,-2.43692 -3.206353,-5.47285 -1.551437,-3.00553 -2.887636,-5.28841 -3.095387,-5.28841 -0.206322,0 -1.520692,2.21533 -3.017837,5.08648 -1.458754,2.79756 -2.778575,5.21276 -2.932933,5.3671 -0.154331,0.15434 -2.056421,0.57707 -4.226851,0.93939 -2.17043,0.36232 -4.830551,0.80846 -5.9114,0.99141 -1.08085,0.18296 -2.005648,0.45409 -2.055125,0.60252 -0.04948,0.14842 1.822318,2.25899 4.159541,4.69016 4.009179,4.17034 4.241747,4.4688 4.112789,5.27787 -0.07519,0.47166 -0.332105,2.16726 -0.570918,3.76799 -0.238839,1.60072 -0.59047,3.86126 -0.781446,5.02342 -0.230532,1.40287 -0.259266,2.21896 -0.08554,2.4283 0.194812,0.23475 1.649095,-0.36894 5.692351,-2.36297 l 5.430706,-2.67827 z m 45.944869,-0.3705 4.69482,-2.34756 5.54643,2.76316 c 3.05054,1.51974 5.62721,2.68238 5.72593,2.58366 0.0987,-0.0987 -0.19383,-2.78681 -0.65011,-5.97352 -0.45627,-3.18671 -0.8296,-5.95047 -0.8296,-6.14168 0,-0.19121 1.93477,-2.29807 4.29948,-4.68192 4.06289,-4.09577 4.27122,-4.35519 3.7859,-4.71448 -0.2825,-0.20913 -0.72875,-0.38022 -0.99169,-0.38022 -0.79005,0 -9.82869,-1.59489 -10.42411,-1.83936 -0.36674,-0.15058 -1.46354,-2.013 -3.26472,-5.5437 -1.49182,-2.92432 -2.85197,-5.31694 -3.02252,-5.31694 -0.17055,0 -1.55895,2.39206 -3.08528,5.31569 -1.78572,3.42044 -2.96386,5.38732 -3.30435,5.51658 -0.29104,0.1105 -3.01271,0.60004 -6.04814,1.08789 -3.78079,0.60764 -5.56284,1.0013 -5.65825,1.24995 -0.0851,0.22173 1.47048,1.98414 3.99762,4.52916 3.62334,3.64901 4.13689,4.27213 4.13689,5.01961 0,0.46938 -0.36144,3.19174 -0.80322,6.04969 -0.44177,2.85794 -0.74213,5.35549 -0.66744,5.5501 0.17211,0.4485 0.41693,0.34679 6.56236,-2.72611 z m 55.2333,-0.23944 c 2.76199,-1.38245 5.20277,-2.51354 5.42396,-2.51354 0.22119,0 2.676,1.13811 5.4551,2.52913 2.77913,1.39103 5.12506,2.45704 5.21317,2.36893 0.0881,-0.0881 -0.16399,-2.44662 -0.56021,-5.24112 -0.39624,-2.79449 -0.71927,-5.43673 -0.71789,-5.87164 0.003,-0.6663 0.65521,-1.44437 4.14996,-4.94425 3.79034,-3.79589 4.09218,-4.16636 3.50573,-4.30263 -0.35293,-0.082 -2.93245,-0.55019 -5.73225,-1.04041 -2.79982,-0.49021 -5.26902,-1.0394 -5.48711,-1.2204 -0.21813,-0.18101 -1.55409,-2.58643 -2.96881,-5.34538 -2.30503,-4.49512 -2.6089,-4.96618 -2.92495,-4.53414 -0.19396,0.26516 -1.3689,2.44665 -2.61098,4.84774 -1.24206,2.4011 -2.46486,4.57826 -2.7173,4.83814 -0.33877,0.34876 -1.90571,0.71426 -5.98281,1.39554 -3.03811,0.50766 -5.5834,0.98258 -5.65618,1.05539 -0.13772,0.13771 0.93585,1.30872 5.37874,5.86693 l 2.63652,2.70496 -0.32713,2.45442 c -0.17992,1.34993 -0.55828,3.9427 -0.84082,5.76171 -0.58074,3.73881 -0.57706,3.70416 -0.39347,3.70416 0.0742,0 2.39475,-1.13109 5.15673,-2.51354 z"
         id="path1532"
         inkscape:connector-curvature="0" />
    </g>
    <g
       transform="matrix(2.4812662,0,0,1.830774,-466.0543,-135.61774)"
       id="layer1-6"
       inkscape:label="Layer 1">
      <g
         id="g893">
        <path
           inkscape:connector-curvature="0"
           style="fill:#eaaf4c;stroke-width:1.33333337"
           d="m 290.33203,361.72852 c -1.83751,0.11675 -3.75184,2.82706 -6.10547,8.15234 -3.04896,6.89853 -4.20502,8.21053 -8.2207,9.32617 -2.57011,0.71403 -7.18638,1.30091 -10.25977,1.30469 -3.07338,0.004 -5.9959,0.66843 -6.49414,1.47461 -0.50342,0.81456 2.52158,4.92756 6.8086,9.25976 l 7.71289,7.79688 -2.125,9.68555 c -1.16903,5.32743 -1.83231,10.15948 -1.47461,10.73828 0.9773,1.58131 1.40493,1.42762 10.00586,-3.61328 4.37934,-2.56664 8.87934,-4.66797 10,-4.66797 1.12065,0 5.67599,2.13391 10.12304,4.74023 5.15241,3.01977 8.54955,4.27467 9.36329,3.46094 0.81373,-0.81373 0.52927,-4.55269 -0.78321,-10.30664 -2.40224,-10.53143 -2.04451,-11.55324 6.63086,-18.96875 8.16606,-6.98011 7.34332,-8.93845 -4.21289,-10.01758 -4.9172,-0.45917 -9.71223,-1.47598 -10.6543,-2.25781 -0.94208,-0.78187 -3.04264,-4.69666 -4.66796,-8.70117 -2.04786,-5.04561 -3.80898,-7.52301 -5.64649,-7.40625 z m 139.32031,0 c -1.82283,-0.11229 -3.58424,2.36368 -5.63086,7.40625 -1.62531,4.00451 -3.72588,7.9193 -4.66796,8.70117 -0.94209,0.78183 -5.7371,1.79864 -10.6543,2.25781 -11.55625,1.07913 -12.37894,3.03747 -4.21289,10.01758 8.57008,7.32548 8.95663,8.38756 6.66601,18.30273 -1.07792,4.66556 -1.64597,9.29868 -1.26367,10.29492 h -0.002 c 0.9357,2.43848 0.8659,2.45897 9.93359,-2.85546 4.37934,-2.56664 8.87933,-4.66797 10,-4.66797 1.12067,0 5.72671,2.16361 10.23633,4.80664 4.50958,2.64302 8.69525,4.29236 9.30274,3.66601 0.60748,-0.62634 0.14096,-5.71194 -1.03711,-11.30273 l -2.14258,-10.16602 7.80273,-7.26172 c 8.74511,-8.13978 8.80419,-10.40467 0.27149,-10.41601 -3.0734,-0.004 -7.74051,-0.6052 -10.3711,-1.33594 -4.15967,-1.15551 -5.2314,-2.37094 -8.23242,-9.32617 -2.29104,-5.30976 -4.17521,-8.00881 -5.99805,-8.12109 z m -209.33789,0.0996 c -1.76887,0.007 -3.48792,2.43113 -5.49414,7.27149 -1.65175,3.98514 -3.85571,7.953 -4.89843,8.81836 -1.04272,0.8654 -5.85412,1.89102 -10.69141,2.2793 -11.26868,0.90455 -12.03395,2.77284 -4.02539,9.82226 8.60652,7.57576 8.99077,8.64266 6.68164,18.54102 -1.08691,4.65917 -1.67465,9.25579 -1.30664,10.21484 0.90652,2.36232 0.86928,2.37457 9.90625,-2.92187 4.37935,-2.56664 8.87935,-4.66797 10,-4.66797 1.12065,0 5.72671,2.16361 10.23633,4.80664 4.50961,2.64302 8.7001,4.29236 9.3125,3.66601 0.61241,-0.62634 0.198,-5.56318 -0.92188,-10.9707 l -2.03711,-9.83203 7.62305,-7.70117 c 4.19211,-4.23625 7.26529,-8.28018 6.83008,-8.98438 -0.43522,-0.70416 -4.71232,-1.59372 -9.50586,-1.97851 -4.79356,-0.38476 -9.59355,-1.42832 -10.66602,-2.31836 -1.07247,-0.89008 -3.43292,-4.8579 -5.24609,-8.81836 -2.20832,-4.82359 -4.02801,-7.2336 -5.79688,-7.22657 z m 279.49024,0.0332 c -1.82854,0.0953 -3.80926,2.71898 -6.42188,7.89453 -2.19416,4.34656 -4.6659,8.32134 -5.49219,8.83203 -0.82631,0.51065 -5.35654,1.23717 -10.0664,1.61523 -4.7099,0.37807 -8.9183,1.26264 -9.35352,1.9668 -0.43521,0.7042 2.63794,4.74809 6.83008,8.98438 l 7.62305,7.70117 -2.01758,9.80469 c -1.10952,5.39274 -1.73204,10.26725 -1.38281,10.83203 0.95966,1.55278 1.41214,1.38882 9.99023,-3.63867 4.37934,-2.56664 8.87937,-4.66797 10,-4.66797 1.12067,0 5.67602,2.13391 10.12305,4.74023 4.62773,2.71223 8.58534,4.23884 9.2539,3.57031 0.66853,-0.66852 0.34423,-5.09619 -0.75781,-10.35351 -2.23381,-10.65661 -1.91356,-11.57446 6.66211,-19.12305 8.00856,-7.04942 7.24327,-8.91771 -4.02539,-9.82226 -4.8373,-0.38828 -9.62906,-1.39814 -10.64844,-2.24415 -1.01941,-0.84605 -3.18328,-4.81384 -4.80859,-8.81835 -2.00294,-4.93494 -3.67928,-7.36877 -5.50781,-7.27344 z m -139.96094,0.22461 c -1.84321,-0.001 -3.65199,2.74321 -6.2207,8.23242 -3.67191,7.8467 -4.33838,8.52761 -9.125,9.31836 -2.8403,0.46919 -7.13272,0.86158 -9.53907,0.86914 -7.47261,0.0251 -7.11265,3.61196 1.08985,10.84375 l 7.18945,6.33789 -1.61914,9.44141 C 340.72873,412.32145 340,417.15722 340,417.87695 v 0.002 c 0,2.38575 4.09367,1.36029 12.08203,-3.02539 l 7.89258,-4.33399 8.3457,4.37109 c 8.56502,4.48566 11.67969,5.28337 11.67969,2.98829 0,-0.71974 -0.73417,-5.58728 -1.63086,-10.81641 l -1.63086,-9.50781 7.18945,-6.30469 c 8.1851,-7.17865 8.55124,-10.71768 1.11329,-10.74414 -2.40635,-0.008 -6.67356,-0.39529 -9.48243,-0.85938 -4.68491,-0.77408 -5.45147,-1.54399 -9.28515,-9.31836 -2.70876,-5.49316 -4.58648,-8.24081 -6.42969,-8.24218 z"
           transform="scale(0.26458333)"
           id="path884" />
        <path
           inkscape:connector-curvature="0"
           id="path882"
           d="m 73.371876,185.00406 c 0.814631,-1.52215 13.536394,-20.70193 14.236919,-21.46407 0.643583,-0.7002 0.975084,-0.78547 2.343326,-0.60277 l 1.593695,0.21281 1.321713,-2.44403 1.321718,-2.44403 -0.860196,-1.8921 c -0.47311,-1.04065 -1.034761,-2.92396 -1.248117,-4.18514 -0.692404,-4.0929 1.068151,-9.04804 4.959755,-13.95939 3.972161,-5.01302 5.922471,-6.00495 8.923671,-4.53855 0.55714,0.27222 1.13672,0.41848 1.28795,0.32501 0.15124,-0.0935 2.29903,-3.70248 4.77289,-8.02003 2.47386,-4.31755 4.90394,-8.2902 5.40018,-8.82811 1.99043,-2.15757 4.86665,-2.03709 7.13059,0.2987 1.02939,1.06206 1.20896,1.49404 1.20711,2.90377 -0.002,1.41349 -0.40238,2.36203 -2.73403,6.47492 -1.50252,2.65034 -2.73185,5.06721 -2.73185,5.3708 0,0.30359 0.46805,0.79402 1.0401,1.08984 0.57205,0.29582 1.44901,1.07397 1.9488,1.72922 0.65892,0.86389 1.28225,1.2511 2.26771,1.40868 1.58701,0.25377 3.70405,2.33713 4.07054,4.00577 0.15846,0.72145 0.59659,1.2155 1.43058,1.61321 1.57071,0.74902 2.36488,2.01387 2.56371,4.08319 0.14783,1.53851 -0.0509,2.08679 -2.38985,6.59452 -5.93784,11.44352 -8.78762,15.4272 -12.3427,17.25377 -0.87312,0.4486 -1.83845,1.11061 -2.14517,1.47113 -0.74675,0.87774 -2.44094,3.86721 -2.44094,4.30715 0,0.19306 0.47603,0.82705 1.05786,1.40887 1.22566,1.22566 1.22293,1.24024 -0.93909,5.0283 -0.84144,1.47428 -1.52988,2.86334 -1.52988,3.08681 0,0.30177 -5.13159,0.40631 -19.944354,0.40631 -19.729806,0 -19.940358,-0.007 -19.57264,-0.69456 z m 36.830584,-8.64164 c 0.90586,-1.38251 0.71116,-2.10747 -0.75317,-2.80455 -2.72315,-1.29632 -8.82941,-4.95483 -11.608378,-6.95505 -1.582423,-1.13898 -3.104754,-2.07087 -3.382958,-2.07087 -0.634079,0 -1.410568,1.64295 -1.155827,2.44557 0.464855,1.46462 6.990873,6.29582 11.733373,8.68619 3.55797,1.79333 4.37715,1.90411 5.16696,0.69871 z m 3.63323,-6.24784 c 0.63227,-0.93743 1.66667,-1.8199 2.84516,-2.42729 1.01844,-0.52489 2.36781,-1.34993 2.99861,-1.83343 2.1557,-1.65228 10.96416,-17.54771 10.77878,-19.45099 -0.1516,-1.55658 -1.34603,-1.65263 -2.9574,-0.23783 -0.97693,0.85775 -1.37632,1.01469 -1.88688,0.74145 -1.04384,-0.55865 -1.08006,-1.22247 -0.17346,-3.17928 0.97468,-2.10374 1.07784,-3.2647 0.34417,-3.87359 -0.9019,-0.74851 -2.03945,-0.25212 -3.19678,1.395 -0.88776,1.26346 -1.3254,1.5875 -2.14404,1.5875 -0.85283,0 -1.04724,-0.16131 -1.1377,-0.94402 -0.0649,-0.56118 0.25705,-1.52405 0.79375,-2.37424 1.44229,-2.28475 0.98662,-3.739 -1.09612,-3.49821 -0.73893,0.0854 -1.29221,0.58021 -2.2262,1.99076 -1.59603,2.41044 -2.23025,2.78001 -3.16559,1.84466 -0.9271,-0.9271 -1.01482,-0.72255 4.54581,-10.60076 2.53487,-4.50308 4.60885,-8.43622 4.60885,-8.7403 0,-0.84772 -1.07304,-1.84317 -1.98682,-1.84317 -1.02096,0 -0.50294,-0.80796 -9.70354,15.13465 -4.48928,7.77893 -7.90397,13.32535 -8.29028,13.46575 -0.92704,0.33694 -1.89159,-0.26303 -1.89159,-1.1766 0,-0.42548 1.04224,-2.57396 2.31608,-4.7744 2.50827,-4.33282 2.56539,-5.01051 0.42234,-5.01051 -1.25848,0 -2.65441,1.39126 -5.201928,5.18454 -2.524636,3.75922 -3.268062,6.00999 -3.123194,9.45574 0.09259,2.20234 0.331738,3.25611 1.088792,4.79766 1.13295,2.30696 1.167783,2.70144 0.383713,4.34565 -0.495378,1.03882 -0.512565,1.31874 -0.110709,1.80294 1.201158,1.44731 14.585116,9.67682 15.755066,9.68745 0.22971,0.002 0.86471,-0.65902 1.41111,-1.46913 z"
           style="fill:#254016;stroke-width:0.35277778" />
      </g>
    </g>
  </g>
</svg>
