<?xml version="1.0" encoding="UTF-8"?>
<!-- Created with Inkscape (http://www.inkscape.org/) -->
<svg width="508mm" height="135.73mm" version="1.1" viewBox="0 0 508 135.73" xmlns="http://www.w3.org/2000/svg" xmlns:cc="http://creativecommons.org/ns#" xmlns:dc="http://purl.org/dc/elements/1.1/" xmlns:rdf="http://www.w3.org/1999/02/22-rdf-syntax-ns#">
 <metadata>
  <rdf:RDF>
   <cc:Work rdf:about="">
    <dc:format>image/svg+xml</dc:format>
    <dc:type rdf:resource="http://purl.org/dc/dcmitype/StillImage"/>
    <dc:title/>
   </cc:Work>
  </rdf:RDF>
 </metadata>
 <g transform="translate(284.24 -67.945)">
  <g transform="translate(-31.756 5.2917)" stroke-width=".26458">
   <path d="m-252.24 197.79c0.12793-0.32771 2.8183-6.4894 5.9787-13.693 11.627-26.502 13.481-30.727 17.06-38.894 2.009-4.5839 5.6397-12.859 8.0681-18.389s6.4732-14.757 8.9885-20.505c3.7934-8.6691 14.27-32.548 18.108-41.275l0.98925-2.249 135.99-0.1333 3.5426 8.1364c1.9484 4.475 3.9948 9.1187 4.5475 10.319l1.005 2.1828h151.74c83.457 0 151.74 0.0412 151.74 0.0914 0 0.11082-2.2366 5.2428-9.1274 20.943-12.591 28.687-15.972 36.393-18.806 42.863-1.6575 3.7835-5.3124 12.118-8.1221 18.521l-5.1085 11.642-321.97 0.26459-0.38508 0.79375c-0.2118 0.43656-2.2652 5.08-4.563 10.319l-4.178 9.525-135.73 0.1333z" fill="#f7b20f"/>
   <path d="m-107.62 177.23c-0.0878-0.14213 0.92908-2.7318 2.2598-5.7549 1.3307-3.0231 2.9928-6.8062 3.6935-8.4069 1.4322-3.2718 4.4429-10.133 7.14-16.272 1.9984-4.5484 14.375-32.784 21.745-49.609 6.0904-13.904 5.9798-13.663 6.5542-14.287 0.2683-0.29147 1.2631-2.3159 2.2107-4.4987 4.4813-10.323 6.5032-14.807 6.7065-14.874 0.12191-0.0401 2.1099 4.2426 4.4177 9.5173 2.3078 5.2746 4.3844 9.7391 4.6146 9.921 0.33376 0.26371 31.156 0.33073 152.11 0.33073 83.428 0 151.69 0.0412 151.69 0.0914 0 0.11082-2.2366 5.2428-9.1274 20.943-12.591 28.687-15.972 36.393-18.806 42.863-1.6575 3.7835-5.3124 12.118-8.1221 18.521l-5.1085 11.642-160.91 0.0664c-104.5 0.0431-160.96-0.0242-161.07-0.19206zm74.884-37.74c-0.37177-2.6026-0.7425-5.1324-0.82385-5.6217-0.14227-0.85577 9e-3 -1.0478 3.9707-5.0375 2.2652-2.2813 4.1186-4.2669 4.1186-4.4125 0-0.14559-1.1609-0.46791-2.5797-0.71626-1.4188-0.24836-3.941-0.6914-5.6047-0.98455-1.6638-0.29315-3.2116-0.70297-3.4396-0.9107-0.228-0.20774-1.5456-2.5852-2.9281-5.2832s-2.6326-4.9062-2.7781-4.907c-0.14552-7.9e-4 -1.4249 2.2438-2.843 4.9881-1.4181 2.7442-2.7278 5.108-2.9104 5.2528-0.1826 0.14481-2.6537 0.64438-5.4914 1.1102s-5.4508 0.93574-5.8069 1.0444c-0.60896 0.18571-0.40027 0.45011 3.5057 4.4415 2.7789 2.8397 4.1532 4.4339 4.1532 4.8176 0 0.31547-0.36782 2.9612-0.81738 5.8793-0.44956 2.9182-0.74392 5.3792-0.65413 5.469 0.08979 0.0898 2.5482-1.0163 5.4632-2.4579l5.2999-2.6211 5.3422 2.6973c3.6675 1.8517 5.3669 2.5856 5.4209 2.3408 0.04327-0.19607-0.2255-2.4859-0.59727-5.0885zm56.666 4.7268c-0.07871-0.40018-0.46892-3.0839-0.86715-5.9638l-0.72401-5.2362 2.7644-2.8336c3.4531-3.5394 5.3634-5.5887 5.4621-5.8595 0.04186-0.11492-0.37486-0.27312-0.92604-0.35155-3.3237-0.47294-10.565-1.8512-10.765-2.049-0.13078-0.12922-1.389-2.4662-2.7961-5.1934-1.4071-2.7271-2.6692-4.9954-2.8049-5.0406-0.13565-0.0452-1.4758 2.2343-2.9781 5.0655-1.5276 2.879-2.9302 5.2108-3.1825 5.2909-0.24808 0.0787-2.8672 0.54889-5.8203 1.0448-2.9531 0.49589-5.4411 0.9735-5.5289 1.0614-0.08785 0.0879 1.7066 2.0491 3.9876 4.3583 2.2811 2.3092 4.1497 4.3025 4.1525 4.4295 0.0028 0.12701-0.37688 2.7583-0.84383 5.8473-0.46694 3.089-0.76189 5.7035-0.65543 5.81 0.10646 0.10645 2.5429-0.97644 5.4144-2.4064l5.2208-2.6 5.2852 2.6629c2.9068 1.4646 5.3894 2.6692 5.5167 2.677 0.12734 8e-3 0.16711-0.31331 0.08837-0.71349zm56.077 0.13229c-0.26699-1.0652-1.4956-9.9811-1.4956-10.853 0-0.74219 0.52007-1.3693 4.1526-5.0072 2.8093-2.8134 4.0289-4.2036 3.7703-4.2976-0.21026-0.0764-2.8231-0.56195-5.8062-1.079-4.4597-0.77301-5.5064-1.0379-5.8873-1.4898-0.25484-0.30234-1.5381-2.6794-2.8517-5.2825-1.3136-2.603-2.4955-4.7328-2.6264-4.7328-0.13097 0-1.4571 2.32-2.9469 5.1555-1.4898 2.8355-2.9002 5.2162-3.134 5.2905-0.23392 0.0742-2.8387 0.53757-5.7884 1.0296-2.9497 0.49205-5.4334 0.96489-5.5193 1.0508-0.08586 0.0859 1.6457 2.0485 3.848 4.3613 3.621 3.8029 4.004 4.2951 4.004 5.1447 0 0.76631-0.91826 7.3148-1.4462 10.313-0.07641 0.43402-0.0095 0.7276 0.16584 0.7276 0.16169 0 2.6397-1.1414 5.5067-2.5364l5.2127-2.5364 5.2685 2.6545c2.8977 1.46 5.3707 2.6609 5.4956 2.6686 0.12491 8e-3 0.15997-0.25377 0.0779-0.5812zm55.139-5.6133c-0.54004-3.6503-0.72636-5.6144-0.56086-5.9126 0.13631-0.24558 1.982-2.1714 4.1015-4.2795 2.1195-2.1082 3.8537-3.9554 3.8537-4.105s-2.292-0.66983-5.0932-1.1561c-2.8013-0.48626-5.4504-0.99156-5.887-1.1229-0.70078-0.21083-1.1037-0.84232-3.4396-5.3911-1.4552-2.8337-2.7649-5.117-2.9104-5.074-0.14552 0.0431-1.4027 2.2464-2.7937 4.8962s-2.7007 4.9821-2.9104 5.1828c-0.21836 0.20898-2.5861 0.72275-5.5407 1.2022-2.8377 0.46052-5.4324 0.92033-5.7662 1.0218-0.55494 0.16873-0.25541 0.55077 3.5057 4.4714 2.9055 3.0288 4.1125 4.468 4.1125 4.9039 0 0.33933-0.36182 2.9779-0.80404 5.8634-0.44223 2.8855-0.738 5.3125-0.65733 5.3932 0.0807 0.0807 2.5373-1.0283 5.4591-2.4644l5.3124-2.6111 5.333 2.6822c3.6884 1.8551 5.3578 2.5717 5.4135 2.3239 0.0443-0.19704-0.28329-2.818-0.72808-5.8244z" fill="#cc6d15"/>
   <path d="m-107.23 177.01c0-0.11636 1.2029-2.9441 2.6731-6.2838 1.4702-3.3398 4.3163-9.8228 6.3246-14.407 2.0083-4.5839 5.6386-12.859 8.0674-18.389s6.2394-14.221 8.468-19.315c6.319-14.441 12.632-28.82 14.055-32.015l1.2968-2.9104 160.8-0.0664c88.438-0.0365 160.8-0.025 160.8 0.0255s-0.16987 0.43757-0.37748 0.86011c-0.20762 0.42254-1.8877 4.2211-3.7336 8.4412-3.5486 8.1132-10.492 23.955-13.801 31.485-1.0868 2.4738-2.9639 6.7601-4.1714 9.525-1.2075 2.7649-3.9485 9.0157-6.0912 13.891-2.1426 4.875-5.775 13.15-8.0718 18.389-2.2969 5.2388-4.3276 9.8524-4.5127 10.253l-0.33658 0.7276h-160.69c-88.381 0-160.69-0.0952-160.69-0.21157zm59.598-34.607 4.6969-2.3486 5.4593 2.7258c3.5643 1.7796 5.5493 2.6358 5.7185 2.4666s-0.02779-2.2186-0.56766-5.904c-0.45479-3.1046-0.8257-5.8152-0.82424-6.0236 0.0013-0.20831 1.9321-2.321 4.2903-4.695 2.969-2.9888 4.203-4.4009 4.0124-4.5915-0.15138-0.15137-2.7059-0.69338-5.6767-1.2044-2.9708-0.51107-5.65-1.0313-5.9538-1.1561-0.3667-0.15063-1.4638-2.0136-3.2647-5.5438-1.4918-2.9243-2.8554-5.3169-3.0302-5.3169-0.17479 0-1.5956 2.4285-3.1574 5.3968-2.1739 4.1316-2.9778 5.4294-3.4289 5.536-0.32415 0.0766-3.0137 0.53044-5.9767 1.0085-3.6662 0.59154-5.4316 0.98466-5.526 1.2305-0.08421 0.21944 1.4851 1.9965 3.9983 4.5274 3.5951 3.6205 4.1369 4.2762 4.1369 5.0058 0 0.46177-0.36317 3.2233-0.80705 6.1366-0.44388 2.9134-0.73516 5.4134-0.6473 5.5555 0.20348 0.32923 0.72881 0.10414 6.5481-2.8057zm58.216-1.057 2.5878-1.2933 5.4272 2.7511c3.3891 1.718 5.5206 2.6577 5.676 2.5023 0.15539-0.15538-0.04583-2.2327-0.53578-5.5316-0.43156-2.9055-0.78679-5.6354-0.78941-6.0665-4e-3 -0.66121 0.66458-1.4575 4.2789-5.0958 2.923-2.9425 4.1976-4.3982 4.0127-4.5832-0.14904-0.14903-0.85627-0.36896-1.5717-0.48872-8.3463-1.3973-10.088-1.7411-10.429-2.0583-0.21828-0.20321-1.5875-2.6497-3.0427-5.4367-1.4552-2.787-2.7796-5.1096-2.9431-5.1614-0.16351-0.0518-1.5327 2.2476-3.0427 5.1097s-2.9836 5.3475-3.2746 5.5231c-0.29104 0.17562-3.0127 0.72051-6.0482 1.2109-3.5345 0.57098-5.5657 1.0132-5.6488 1.2298-0.07173 0.18693 1.6871 2.2414 3.9315 4.5923 2.2337 2.3397 4.1014 4.4338 4.1504 4.6534 0.049 0.21962-0.16348 2.0282-0.47217 4.019-0.30869 1.9908-0.69147 4.4763-0.85062 5.5232-0.44696 2.9403-0.44934 2.9393 3.0094 1.3052 1.6428-0.7761 4.1514-1.9931 5.5747-2.7044zm63.848 1.4285c2.9713 1.4835 5.5207 2.6974 5.6653 2.6974 0.4069 0 0.31064-1.2927-0.52062-6.9922l-0.76899-5.2724 4.2158-4.4144c2.3187-2.4279 4.2158-4.5405 4.2158-4.6946 0-0.32085 0.14915-0.28835-6.35-1.3838-2.6921-0.45377-5.1092-0.90803-5.3713-1.0095-0.27353-0.10588-1.6392-2.4369-3.2064-5.4728-1.5514-3.0055-2.8876-5.2884-3.0954-5.2884-0.20632 0-1.5207 2.2153-3.0178 5.0865-1.4588 2.7976-2.7786 5.2128-2.9329 5.3671-0.15433 0.15434-2.0564 0.57707-4.2269 0.93939s-4.8306 0.80846-5.9114 0.99141c-1.0808 0.18296-2.0056 0.45409-2.0551 0.60252-0.04948 0.14842 1.8223 2.259 4.1595 4.6902 4.0092 4.1703 4.2417 4.4688 4.1128 5.2779-0.07519 0.47166-0.3321 2.1673-0.57092 3.768-0.23884 1.6007-0.59047 3.8613-0.78145 5.0234-0.23053 1.4029-0.25927 2.219-0.08554 2.4283 0.19481 0.23475 1.6491-0.36894 5.6924-2.363l5.4307-2.6783zm45.945-0.3705 4.6948-2.3476 5.5464 2.7632c3.0505 1.5197 5.6272 2.6824 5.7259 2.5837 0.0987-0.0987-0.19383-2.7868-0.65011-5.9735-0.45627-3.1867-0.8296-5.9505-0.8296-6.1417s1.9348-2.2981 4.2995-4.6819c4.0629-4.0958 4.2712-4.3552 3.7859-4.7145-0.2825-0.20913-0.72875-0.38022-0.99169-0.38022-0.79005 0-9.8287-1.5949-10.424-1.8394-0.36674-0.15058-1.4635-2.013-3.2647-5.5437-1.4918-2.9243-2.852-5.3169-3.0225-5.3169s-1.559 2.3921-3.0853 5.3157c-1.7857 3.4204-2.9639 5.3873-3.3044 5.5166-0.29104 0.1105-3.0127 0.60004-6.0481 1.0879-3.7808 0.60764-5.5628 1.0013-5.6582 1.25-0.0851 0.22173 1.4705 1.9841 3.9976 4.5292 3.6233 3.649 4.1369 4.2721 4.1369 5.0196 0 0.46938-0.36144 3.1917-0.80322 6.0497-0.44177 2.8579-0.74213 5.3555-0.66744 5.5501 0.17211 0.4485 0.41693 0.34679 6.5624-2.7261zm55.233-0.23944c2.762-1.3824 5.2028-2.5135 5.424-2.5135s2.676 1.1381 5.4551 2.5291c2.7791 1.391 5.1251 2.457 5.2132 2.3689 0.0881-0.0881-0.16399-2.4466-0.56021-5.2411-0.39624-2.7945-0.71927-5.4367-0.71789-5.8716 3e-3 -0.6663 0.65521-1.4444 4.15-4.9442 3.7903-3.7959 4.0922-4.1664 3.5057-4.3026-0.35293-0.082-2.9324-0.55019-5.7322-1.0404-2.7998-0.49021-5.269-1.0394-5.4871-1.2204-0.21813-0.18101-1.5541-2.5864-2.9688-5.3454-2.305-4.4951-2.6089-4.9662-2.925-4.5341-0.19396 0.26516-1.3689 2.4466-2.611 4.8477-1.2421 2.4011-2.4649 4.5783-2.7173 4.8381-0.33877 0.34876-1.9057 0.71426-5.9828 1.3955-3.0381 0.50766-5.5834 0.98258-5.6562 1.0554-0.13772 0.13771 0.93585 1.3087 5.3787 5.8669l2.6365 2.705-0.32713 2.4544c-0.17992 1.3499-0.55828 3.9427-0.84082 5.7617-0.58074 3.7388-0.57706 3.7042-0.39347 3.7042 0.0742 0 2.3948-1.1311 5.1567-2.5135z" fill="#272626"/>
  </g>
  <g transform="matrix(2.4813 0 0 1.8308 -466.05 -135.62)">
   <path transform="scale(.26458)" d="m290.33 361.73c-1.8375 0.11675-3.7518 2.8271-6.1055 8.1523-3.049 6.8985-4.205 8.2105-8.2207 9.3262-2.5701 0.71403-7.1864 1.3009-10.26 1.3047-3.0734 4e-3 -5.9959 0.66843-6.4941 1.4746-0.50342 0.81456 2.5216 4.9276 6.8086 9.2598l7.7129 7.7969-2.125 9.6856c-1.169 5.3274-1.8323 10.159-1.4746 10.738 0.9773 1.5813 1.4049 1.4276 10.006-3.6133 4.3793-2.5666 8.8793-4.668 10-4.668 1.1206 0 5.676 2.1339 10.123 4.7402 5.1524 3.0198 8.5496 4.2747 9.3633 3.4609 0.81373-0.81373 0.52927-4.5527-0.78321-10.307-2.4022-10.531-2.0445-11.553 6.6309-18.969 8.1661-6.9801 7.3433-8.9384-4.2129-10.018-4.9172-0.45917-9.7122-1.476-10.654-2.2578-0.94208-0.78187-3.0426-4.6967-4.668-8.7012-2.0479-5.0456-3.809-7.523-5.6465-7.4062zm139.32 0c-1.8228-0.11229-3.5842 2.3637-5.6309 7.4062-1.6253 4.0045-3.7259 7.9193-4.668 8.7012-0.94209 0.78183-5.7371 1.7986-10.654 2.2578-11.556 1.0791-12.379 3.0375-4.2129 10.018 8.5701 7.3255 8.9566 8.3876 6.666 18.303-1.0779 4.6656-1.646 9.2987-1.2637 10.295h-2e-3c0.9357 2.4385 0.8659 2.459 9.9336-2.8555 4.3793-2.5666 8.8793-4.668 10-4.668s5.7267 2.1636 10.236 4.8066c4.5096 2.643 8.6952 4.2924 9.3027 3.666 0.60748-0.62634 0.14096-5.7119-1.0371-11.303l-2.1426-10.166 7.8027-7.2617c8.7451-8.1398 8.8042-10.405 0.27149-10.416-3.0734-4e-3 -7.7405-0.6052-10.371-1.3359-4.1597-1.1555-5.2314-2.3709-8.2324-9.3262-2.291-5.3098-4.1752-8.0088-5.998-8.1211zm-209.34 0.0996c-1.7689 7e-3 -3.4879 2.4311-5.4941 7.2715-1.6518 3.9851-3.8557 7.953-4.8984 8.8184-1.0427 0.8654-5.8541 1.891-10.691 2.2793-11.269 0.90455-12.034 2.7728-4.0254 9.8223 8.6065 7.5758 8.9908 8.6427 6.6816 18.541-1.0869 4.6592-1.6746 9.2558-1.3066 10.215 0.90652 2.3623 0.86928 2.3746 9.9062-2.9219 4.3794-2.5666 8.8794-4.668 10-4.668s5.7267 2.1636 10.236 4.8066c4.5096 2.643 8.7001 4.2924 9.3125 3.666 0.61241-0.62634 0.198-5.5632-0.92188-10.971l-2.0371-9.832 7.623-7.7012c4.1921-4.2362 7.2653-8.2802 6.8301-8.9844-0.43522-0.70416-4.7123-1.5937-9.5059-1.9785-4.7936-0.38476-9.5936-1.4283-10.666-2.3184-1.0725-0.89008-3.4329-4.8579-5.2461-8.8184-2.2083-4.8236-4.028-7.2336-5.7969-7.2266zm279.49 0.0332c-1.8285 0.0953-3.8093 2.719-6.4219 7.8945-2.1942 4.3466-4.6659 8.3213-5.4922 8.832-0.82631 0.51065-5.3565 1.2372-10.066 1.6152-4.7099 0.37807-8.9183 1.2626-9.3535 1.9668-0.43521 0.7042 2.6379 4.7481 6.8301 8.9844l7.623 7.7012-2.0176 9.8047c-1.1095 5.3927-1.732 10.267-1.3828 10.832 0.95966 1.5528 1.4121 1.3888 9.9902-3.6387 4.3793-2.5666 8.8794-4.668 10-4.668 1.1207 0 5.676 2.1339 10.123 4.7402 4.6277 2.7122 8.5853 4.2388 9.2539 3.5703 0.66853-0.66852 0.34423-5.0962-0.75781-10.354-2.2338-10.657-1.9136-11.574 6.6621-19.123 8.0086-7.0494 7.2433-8.9177-4.0254-9.8223-4.8373-0.38828-9.6291-1.3981-10.648-2.2442-1.0194-0.84605-3.1833-4.8138-4.8086-8.8184-2.0029-4.9349-3.6793-7.3688-5.5078-7.2734zm-139.96 0.22461c-1.8432-1e-3 -3.652 2.7432-6.2207 8.2324-3.6719 7.8467-4.3384 8.5276-9.125 9.3184-2.8403 0.46919-7.1327 0.86158-9.5391 0.86914-7.4726 0.0251-7.1126 3.612 1.0898 10.844l7.1894 6.3379-1.6191 9.4414c-0.89041 5.1926-1.6191 10.028-1.6191 10.748v2e-3c0 2.3858 4.0937 1.3603 12.082-3.0254l7.8926-4.334 8.3457 4.3711c8.565 4.4857 11.68 5.2834 11.68 2.9883 0-0.71974-0.73417-5.5873-1.6309-10.816l-1.6309-9.5078 7.1894-6.3047c8.1851-7.1786 8.5512-10.718 1.1133-10.744-2.4064-8e-3 -6.6736-0.39529-9.4824-0.85938-4.6849-0.77408-5.4515-1.544-9.2852-9.3184-2.7088-5.4932-4.5865-8.2408-6.4297-8.2422z" fill="#eaaf4c" stroke-width="1.3333"/>
   <path d="m73.372 185c0.81463-1.5222 13.536-20.702 14.237-21.464 0.64358-0.7002 0.97508-0.78547 2.3433-0.60277l1.5937 0.21281 1.3217-2.444 1.3217-2.444-0.8602-1.8921c-0.47311-1.0406-1.0348-2.924-1.2481-4.1851-0.6924-4.0929 1.0682-9.048 4.9598-13.959 3.9722-5.013 5.9225-6.005 8.9237-4.5386 0.55714 0.27222 1.1367 0.41848 1.288 0.32501 0.15124-0.0935 2.299-3.7025 4.7729-8.02s4.9039-8.2902 5.4002-8.8281c1.9904-2.1576 4.8666-2.0371 7.1306 0.2987 1.0294 1.0621 1.209 1.494 1.2071 2.9038-2e-3 1.4135-0.40238 2.362-2.734 6.4749-1.5025 2.6503-2.7318 5.0672-2.7318 5.3708s0.46805 0.79402 1.0401 1.0898 1.449 1.074 1.9488 1.7292c0.65892 0.86389 1.2822 1.2511 2.2677 1.4087 1.587 0.25377 3.704 2.3371 4.0705 4.0058 0.15846 0.72145 0.59659 1.2155 1.4306 1.6132 1.5707 0.74902 2.3649 2.0139 2.5637 4.0832 0.14783 1.5385-0.0509 2.0868-2.3898 6.5945-5.9378 11.444-8.7876 15.427-12.343 17.254-0.87312 0.4486-1.8384 1.1106-2.1452 1.4711-0.74675 0.87774-2.4409 3.8672-2.4409 4.3072 0 0.19306 0.47603 0.82705 1.0579 1.4089 1.2257 1.2257 1.2229 1.2402-0.93909 5.0283-0.84144 1.4743-1.5299 2.8633-1.5299 3.0868 0 0.30177-5.1316 0.40631-19.944 0.40631-19.73 0-19.94-7e-3 -19.573-0.69456zm36.831-8.6416c0.90586-1.3825 0.71116-2.1075-0.75317-2.8046-2.7232-1.2963-8.8294-4.9548-11.608-6.955-1.5824-1.139-3.1048-2.0709-3.383-2.0709-0.63408 0-1.4106 1.643-1.1558 2.4456 0.46486 1.4646 6.9909 6.2958 11.733 8.6862 3.558 1.7933 4.3772 1.9041 5.167 0.69871zm3.6332-6.2478c0.63227-0.93743 1.6667-1.8199 2.8452-2.4273 1.0184-0.52489 2.3678-1.3499 2.9986-1.8334 2.1557-1.6523 10.964-17.548 10.779-19.451-0.1516-1.5566-1.346-1.6526-2.9574-0.23783-0.97693 0.85775-1.3763 1.0147-1.8869 0.74145-1.0438-0.55865-1.0801-1.2225-0.17346-3.1793 0.97468-2.1037 1.0778-3.2647 0.34417-3.8736-0.9019-0.74851-2.0394-0.25212-3.1968 1.395-0.88776 1.2635-1.3254 1.5875-2.144 1.5875-0.85283 0-1.0472-0.16131-1.1377-0.94402-0.0649-0.56118 0.25705-1.524 0.79375-2.3742 1.4423-2.2848 0.98662-3.739-1.0961-3.4982-0.73893 0.0854-1.2922 0.58021-2.2262 1.9908-1.596 2.4104-2.2302 2.78-3.1656 1.8447-0.9271-0.9271-1.0148-0.72255 4.5458-10.601 2.5349-4.5031 4.6088-8.4362 4.6088-8.7403 0-0.84772-1.073-1.8432-1.9868-1.8432-1.021 0-0.50294-0.80796-9.7035 15.135-4.4893 7.7789-7.904 13.325-8.2903 13.466-0.92704 0.33694-1.8916-0.26303-1.8916-1.1766 0-0.42548 1.0422-2.574 2.3161-4.7744 2.5083-4.3328 2.5654-5.0105 0.42234-5.0105-1.2585 0-2.6544 1.3913-5.2019 5.1845-2.5246 3.7592-3.2681 6.01-3.1232 9.4557 0.09259 2.2023 0.33174 3.2561 1.0888 4.7977 1.133 2.307 1.1678 2.7014 0.38371 4.3456-0.49538 1.0388-0.51256 1.3187-0.11071 1.8029 1.2012 1.4473 14.585 9.6768 15.755 9.6874 0.22971 2e-3 0.86471-0.65902 1.4111-1.4691z" fill="#254016" stroke-width=".35278"/>
  </g>
 </g>
</svg>
