<?xml version="1.0" encoding="UTF-8" standalone="no"?>
<svg
   xmlns:i="http://ns.adobe.com/AdobeIllustrator/10.0/"
   xmlns:dc="http://purl.org/dc/elements/1.1/"
   xmlns:cc="http://web.resource.org/cc/"
   xmlns:rdf="http://www.w3.org/1999/02/22-rdf-syntax-ns#"
   xmlns:svg="http://www.w3.org/2000/svg"
   xmlns="http://www.w3.org/2000/svg"
   xmlns:sodipodi="http://sodipodi.sourceforge.net/DTD/sodipodi-0.dtd"
   xmlns:inkscape="http://www.inkscape.org/namespaces/inkscape"
   width="433"
   height="526"
   id="svg2030"
   sodipodi:version="0.32"
   inkscape:version="0.44"
   version="1.0"
   sodipodi:docbase="E:\"
   sodipodi:docname="edeka.svg">
  <defs
     id="defs2032">
			</defs>
  <sodipodi:namedview
     id="base"
     pagecolor="#ffffff"
     bordercolor="#666666"
     borderopacity="1.0"
     inkscape:pageopacity="0.0"
     inkscape:pageshadow="2"
     inkscape:zoom="0.35"
     inkscape:cx="350"
     inkscape:cy="520"
     inkscape:document-units="px"
     inkscape:current-layer="layer1"
     inkscape:window-width="1440"
     inkscape:window-height="853"
     inkscape:window-x="-4"
     inkscape:window-y="-4" />
  <metadata
     id="metadata2035">
    <rdf:RDF>
      <cc:Work
         rdf:about="">
        <dc:format>image/svg+xml</dc:format>
        <dc:type
           rdf:resource="http://purl.org/dc/dcmitype/StillImage" />
      </cc:Work>
    </rdf:RDF>
  </metadata>
  <g
     inkscape:label="Ebene 1"
     inkscape:groupmode="layer"
     id="layer1"
     transform="translate(673.6429,-32.21933)">
    <path
       style="fill:#f8ec00;stroke:#1561ac;stroke-width:4"
       i:knockout="Off"
       d="M -242.6429,556.21933 L -671.6429,556.21933 L -671.6429,34.21933 L -242.6429,34.21933 L -242.6429,556.21933 z "
       id="path2109" />
    <path
       id="path2113"
       d="M -624.1429,414.21933 L -291.1429,414.21933 L -291.1429,326.22033 L -521.1429,326.21933 L -521.1429,293.21933 L -291.1429,293.21933 L -291.1429,204.21933 L -521.1429,204.22033 L -521.1429,170.21933 L -291.1429,170.21933 L -291.1429,83.22033 L -624.1429,83.21933 L -624.1429,414.21933 z "
       i:knockout="Off"
       style="fill:#1561ac" />
    <path
       style="fill:#1561ac"
       i:knockout="Off"
       d="M -553.7139,507.73233 L -553.7139,448.68133 L -538.0309,448.68133 C -526.3619,448.68133 -518.1499,448.86233 -513.3059,449.72033 C -504.9759,451.20133 -488.9509,459.32333 -488.9509,478.50333 C -488.9509,494.70333 -502.4149,505.38633 -512.8629,507.28633 C -517.5179,508.13333 -524.8009,507.73133 -534.5879,507.73133 L -538.0309,507.73133 L -553.7139,507.73133 L -553.7139,507.73233 z M -535.4049,492.44833 C -535.4049,492.44833 -524.1559,492.56233 -519.9489,492.56233 C -513.0539,492.56233 -506.7599,485.15233 -506.8059,478.20033 C -506.8499,471.50333 -512.4969,464.88633 -519.9489,464.88633 C -524.4889,464.88633 -535.4049,464.83233 -535.4049,464.83233 L -535.4049,492.44833 z "
       id="path2117" />
    <path
       style="fill:#1561ac"
       i:knockout="Off"
       d="M -411.3769,507.73233 L -411.3769,448.68133 L -393.7929,448.68133 L -393.7929,471.50433 L -373.0449,448.68133 L -349.2009,448.68133 L -372.1569,474.07633 L -346.9919,507.73233 L -370.3859,507.73233 L -384.7779,487.91433 L -393.7939,497.23133 L -393.7939,507.73233 L -411.3769,507.73233 z "
       id="path2119" />
    <path
       style="fill:#1561ac"
       i:knockout="Off"
       d="M -345.6679,507.73233 L -326.1989,448.68133 L -297.9199,448.68133 L -278.3749,507.73233 L -296.0629,507.73233 L -300.3619,496.08033 L -323.6249,496.08033 L -328.0119,507.73233 L -345.6679,507.73233 z M -318.7929,481.63733 L -305.1049,481.63733 L -311.9699,461.23333 L -318.7929,481.63733 z "
       id="path2121" />
    <path
       style="fill:none"
       i:knockout="Off"
       d="M -603.3489,470.95933 L -564.5639,470.95933 L -564.5639,463.70133 L -603.3489,463.70133 L -603.3489,470.95933 z "
       id="path2123" />
    <path
       style="fill:none"
       i:knockout="Off"
       d="M -603.3489,492.44833 L -564.5639,492.44833 L -564.5639,485.58533 L -603.3489,485.58533 L -603.3489,492.44833 z "
       id="path2125" />
    <path
       style="fill:#1561ac"
       i:knockout="Off"
       d="M -603.3489,492.44833 L -603.3489,485.58533 L -564.5639,485.58533 L -564.5639,470.95933 L -603.3489,470.95933 L -603.3489,463.70133 L -564.5639,463.70133 L -564.5639,448.68033 L -623.3959,448.68033 L -623.3959,507.73133 L -564.5629,507.73133 L -564.5629,492.44833 L -603.3489,492.44833 z "
       id="path2127" />
    <path
       style="fill:#1561ac"
       i:knockout="Off"
       d="M -461.3489,492.44833 L -461.3489,485.58533 L -422.5629,485.58533 L -422.5629,470.95933 L -461.3489,470.95933 L -461.3489,463.70133 L -422.5629,463.70133 L -422.5629,448.68033 L -481.3959,448.68033 L -481.3959,507.73133 L -422.5629,507.73133 L -422.5629,492.44833 L -461.3489,492.44833 z "
       id="path2129" />
  </g>
</svg>
